<?xml version="1.0" encoding="UTF-8" standalone="no"?>
<!DOCTYPE svg PUBLIC "-//W3C//DTD SVG 1.1//EN"
 "http://www.w3.org/Graphics/SVG/1.1/DTD/svg11.dtd">
<!-- Generated by graphviz version 14.1.2 (0)
 -->
<!-- Title: snakemake_dag Pages: 1 -->
<svg width="142pt" height="260pt"
 viewBox="0.00 0.00 142.00 260.00" xmlns="http://www.w3.org/2000/svg" xmlns:xlink="http://www.w3.org/1999/xlink">
<g id="graph0" class="graph" transform="scale(1 1) rotate(0) translate(4 256)">
<title>snakemake_dag</title>
<polygon fill="white" stroke="none" points="-4,4 -4,-256 137.5,-256 137.5,4 -4,4"/>
<!-- 0 -->
<g id="node1" class="node">
<title>0</title>
<path fill="none" stroke="#d85656" stroke-width="2" d="M83.5,-36C83.5,-36 53.5,-36 53.5,-36 47.5,-36 41.5,-30 41.5,-24 41.5,-24 41.5,-12 41.5,-12 41.5,-6 47.5,0 53.5,0 53.5,0 83.5,0 83.5,0 89.5,0 95.5,-6 95.5,-12 95.5,-12 95.5,-24 95.5,-24 95.5,-30 89.5,-36 83.5,-36"/>
<text xml:space="preserve" text-anchor="middle" x="68.5" y="-14.12" font-family="sans" font-size="10.00">all</text>
</g>
<!-- 1 -->
<g id="node2" class="node">
<title>1</title>
<path fill="none" stroke="#d8bc56" stroke-width="2" d="M94.12,-108C94.12,-108 42.87,-108 42.87,-108 36.88,-108 30.88,-102 30.88,-96 30.88,-96 30.88,-84 30.88,-84 30.88,-78 36.88,-72 42.88,-72 42.88,-72 94.12,-72 94.12,-72 100.12,-72 106.12,-78 106.12,-84 106.12,-84 106.12,-96 106.12,-96 106.12,-102 100.12,-108 94.12,-108"/>
<text xml:space="preserve" text-anchor="middle" x="68.5" y="-86.12" font-family="sans" font-size="10.00">featurecounts</text>
</g>
<!-- 1&#45;&gt;0 -->
<g id="edge1" class="edge">
<title>1&#45;&gt;0</title>
<path fill="none" stroke="grey" stroke-width="2" d="M68.5,-71.34C68.5,-64.75 68.5,-57.08 68.5,-49.67"/>
<polygon fill="grey" stroke="grey" stroke-width="2" points="72,-49.93 68.5,-39.93 65,-49.93 72,-49.93"/>
</g>
<!-- 2 -->
<g id="node3" class="node">
<title>2</title>
<path fill="none" stroke="#88d856" stroke-width="2" d="M85.5,-180C85.5,-180 51.5,-180 51.5,-180 45.5,-180 39.5,-174 39.5,-168 39.5,-168 39.5,-156 39.5,-156 39.5,-150 45.5,-144 51.5,-144 51.5,-144 85.5,-144 85.5,-144 91.5,-144 97.5,-150 97.5,-156 97.5,-156 97.5,-168 97.5,-168 97.5,-174 91.5,-180 85.5,-180"/>
<text xml:space="preserve" text-anchor="middle" x="68.5" y="-158.12" font-family="sans" font-size="10.00">star_align</text>
</g>
<!-- 2&#45;&gt;1 -->
<g id="edge2" class="edge">
<title>2&#45;&gt;1</title>
<path fill="none" stroke="grey" stroke-width="2" d="M68.5,-143.34C68.5,-136.75 68.5,-129.08 68.5,-121.67"/>
<polygon fill="grey" stroke="grey" stroke-width="2" points="72,-121.93 68.5,-111.93 65,-121.93 72,-121.93"/>
</g>
<!-- 3 -->
<g id="node4" class="node">
<title>3</title>
<path fill="none" stroke="#56d88a" stroke-width="2" d="M49,-252C49,-252 12,-252 12,-252 6,-252 0,-246 0,-240 0,-240 0,-228 0,-228 0,-222 6,-216 12,-216 12,-216 49,-216 49,-216 55,-216 61,-222 61,-228 61,-228 61,-240 61,-240 61,-246 55,-252 49,-252"/>
<text xml:space="preserve" text-anchor="middle" x="30.5" y="-230.12" font-family="sans" font-size="10.00">star_index</text>
</g>
<!-- 3&#45;&gt;2 -->
<g id="edge4" class="edge">
<title>3&#45;&gt;2</title>
<path fill="none" stroke="grey" stroke-width="2" d="M40.09,-215.34C43.89,-208.34 48.35,-200.12 52.61,-192.28"/>
<polygon fill="grey" stroke="grey" stroke-width="2" points="55.64,-194.02 57.34,-183.56 49.49,-190.68 55.64,-194.02"/>
</g>
<!-- 4 -->
<g id="node5" class="node">
<title>4</title>
<path fill="none" stroke="#56c1d8" stroke-width="2" d="M121.5,-252C121.5,-252 91.5,-252 91.5,-252 85.5,-252 79.5,-246 79.5,-240 79.5,-240 79.5,-228 79.5,-228 79.5,-222 85.5,-216 91.5,-216 91.5,-216 121.5,-216 121.5,-216 127.5,-216 133.5,-222 133.5,-228 133.5,-228 133.5,-240 133.5,-240 133.5,-246 127.5,-252 121.5,-252"/>
<text xml:space="preserve" text-anchor="middle" x="106.5" y="-230.12" font-family="sans" font-size="10.00">trim</text>
</g>
<!-- 4&#45;&gt;2 -->
<g id="edge3" class="edge">
<title>4&#45;&gt;2</title>
<path fill="none" stroke="grey" stroke-width="2" d="M96.91,-215.34C93.11,-208.34 88.65,-200.12 84.39,-192.28"/>
<polygon fill="grey" stroke="grey" stroke-width="2" points="87.51,-190.68 79.66,-183.56 81.36,-194.02 87.51,-190.68"/>
</g>
</g>
</svg>
